# xmcd
#
# Track frame offsets:
#	150
#	10383
#	27080
#	45569
#	58720
#	74962
#	93724
#	107854
#	125054
#	144399
#	155782
# Disc length: 2273 seconds
# Revision: 1
# Processed by: cddbd v1.5.1PL2 Copyright (c) Steve Scherf et al.
#
# Submitted via: libkcddb 0.21
#
DISCID=a608df0b
DTITLE=Feist - Let it die
DYEAR=2004
DGENRE=Jazz
TTITLE0=Feist - Gatekeeper
TTITLE1=Feist - Mushaboom
TTITLE2=Feist - Leisure Suite
TTITLE3=Feist - Let it die
TTITLE4=Feist - One Evening
TTITLE5=Feist - Lonely lonely
TTITLE6=Feist - When I was a young girl
TTITLE7=Feist - Secret heart
TTITLE8=Feist - Inside and Out
TTITLE9=Feist - Tout doucement
TTITLE10=Feist - Now at last
EXTD=
EXTT0=
EXTT1=
EXTT2=
EXTT3=
EXTT4=
EXTT5=
EXTT6=
EXTT7=
EXTT8=
EXTT9=
EXTT10=
PLAYORDER=
